<?xml version="1.0" encoding="utf-8"?>

<!-- Generator: Adobe Illustrator 26.1.0, SVG Export Plug-In . SVG Version: 6.00 Build 0)  -->

<svg width="33" height="33" version="1.1" id="图层_1" xmlns="http://www.w3.org/2000/svg" xmlns:xlink="http://www.w3.org/1999/xlink" x="0px" y="0px"
	 viewBox="0 0 33 33" style="enable-background:new 0 0 33 33;" xml:space="preserve">
<style type="text/css">
	.st0{fill:url(#SVGID_1_);}
	.st1{fill:url(#SVGID_00000056414143141850053740000014372860130121674146_);}
	.st2{fill:url(#SVGID_00000021834069448271517520000006185087885915805334_);}
	.st3{fill:url(#SVGID_00000001664204521581258490000002063536289896512902_);}
	.st4{fill:url(#SVGID_00000179621350328068769890000013103783967218303874_);}
	.st5{fill:url(#SVGID_00000144302991636570551610000006791373336707486355_);}
	.st6{opacity:0.35;}
	.st7{fill:url(#SVGID_00000134243988809311029950000017983510848102431365_);}
	.st8{fill:url(#SVGID_00000055701968754386920700000007490121804721419404_);}
	.st9{fill:url(#SVGID_00000136391378560349830470000014113784413807401654_);}
	.st10{fill:url(#SVGID_00000152244470288682838040000013460025124307598496_);}
</style>
<g>
	<g>
		<g>
			
				<linearGradient id="SVGID_1_" gradientUnits="userSpaceOnUse" x1="255.3285" y1="253.4174" x2="256.8082" y2="246.9479" gradientTransform="matrix(0.5501 -0.866 0.8487 0.5245 -336.2707 112.2234)">
				<stop  offset="0" style="stop-color:#06AB67"/>
				<stop  offset="1" style="stop-color:#26245E"/>
			</linearGradient>
			<path class="st0" d="M21.6,15.7c-4.3-2-8,3.4-8,3.4c0.2-0.2,0.4-0.4,0.5-0.6c0.7-0.7,1.6-1.1,2.7-1.1c2.1-0.1,3.5,1.3,3.5,3.8
				c0,0.2,0,0.5-0.1,0.7l0,0c-0.6,3-3.2,5.4-6.4,5.6c-0.9,0-1.8-0.1-2.6-0.4c1.3,0.7,2.8,1,4.6,0.9c1.3,0,2.5-0.3,3.7-0.8
				C24.4,25.1,26.1,17.8,21.6,15.7z M11.2,27C11.2,27,11.2,27,11.2,27C11.2,27,11.2,27,11.2,27C11.2,27,11.2,27,11.2,27z"/>
		</g>
	</g>
	
		<linearGradient id="SVGID_00000168817810770566286960000017445381811457853575_" gradientUnits="userSpaceOnUse" x1="1046.2816" y1="2076.874" x2="1045.4191" y2="2082.0491" gradientTransform="matrix(1.0178 0.3603 -0.3908 1.0053 -234.2851 -2459.2268)">
		<stop  offset="0" style="stop-color:#D8DE21"/>
		<stop  offset="1" style="stop-color:#016A37"/>
	</linearGradient>
	<path style="fill:url(#SVGID_00000168817810770566286960000017445381811457853575_);" d="M22.7,6.6c-6.2-1.8-9.7,1.6-9.7,1.6
		s4.6-1.4,8.3,0.9C20.5,7.2,22.7,6.6,22.7,6.6z"/>
	<g>
		
			<linearGradient id="SVGID_00000049906728168083091670000008212615393690023301_" gradientUnits="userSpaceOnUse" x1="1019.7717" y1="2047.9528" x2="1039.2101" y2="2047.1094" gradientTransform="matrix(1.0785 -5.094034e-02 1.797272e-02 1.0785 -1132.2404 -2136.0474)">
			<stop  offset="0" style="stop-color:#039047"/>
			<stop  offset="1" style="stop-color:#046EB6"/>
		</linearGradient>
		<path style="fill:url(#SVGID_00000049906728168083091670000008212615393690023301_);" d="M13.1,13.5c-2.5,2.1,0.1,4.9-6.8,8
			c0.3,0,0.6,0,0.8,0c0.2,0,0.4,0,0.6,0c1.4-0.2,3.3,0.2,5.9-2.4l0,0c0,0,3.7-5.4,8-3.4c4.5,2.1,2.8,9.5-2.2,11.5
			c3.4-1.4,6-4.5,6.6-8.2C25.2,9.2,16.3,10.7,13.1,13.5z"/>
	</g>
	
		<linearGradient id="SVGID_00000170275904818975276430000014250933325968160175_" gradientUnits="userSpaceOnUse" x1="1029.475" y1="2047.1659" x2="1026.3378" y2="2052.0022" gradientTransform="matrix(1.0785 -5.094034e-02 1.797272e-02 1.0785 -1132.2404 -2136.0474)">
		<stop  offset="5.000000e-03" style="stop-color:#EDA937"/>
		<stop  offset="1" style="stop-color:#DF4136"/>
	</linearGradient>
	<path style="fill:url(#SVGID_00000170275904818975276430000014250933325968160175_);" d="M15.1,19.9c-0.6,0.6-1.5,2.2-4.5,3
		c0.8,1.2,2.3,1.9,2.3,1.9C15.7,22.5,15.1,19.9,15.1,19.9z"/>
	
		<linearGradient id="SVGID_00000109741295811992318170000003657358703270447547_" gradientUnits="userSpaceOnUse" x1="1048.8475" y1="2076.5684" x2="1047.5959" y2="2079.6016" gradientTransform="matrix(1.0178 0.3603 -0.3908 1.0053 -234.2851 -2459.2268)">
		<stop  offset="0" style="stop-color:#D8DE21"/>
		<stop  offset="1" style="stop-color:#016A37"/>
	</linearGradient>
	<path style="fill:url(#SVGID_00000109741295811992318170000003657358703270447547_);" d="M17.9,7.9c1.1,0.2,2.2,0.5,3.3,1.2
		c-0.8-1.9,1.4-2.5,1.4-2.5S19.2,5.3,17.9,7.9z"/>
	
		<linearGradient id="SVGID_00000142177024086586929330000003297313373746652554_" gradientUnits="userSpaceOnUse" x1="1029.2916" y1="2047.8632" x2="1028.0637" y2="2051.6211" gradientTransform="matrix(1.0785 -5.094034e-02 1.797272e-02 1.0785 -1132.2404 -2136.0474)">
		<stop  offset="5.000000e-03" style="stop-color:#EDA937"/>
		<stop  offset="1" style="stop-color:#DF4136"/>
	</linearGradient>
	<path style="fill:url(#SVGID_00000142177024086586929330000003297313373746652554_);" d="M15.1,19.9c-0.2,2.5-2.8,4.6-2.8,4.6
		c0.3,0.2,0.6,0.3,0.6,0.3C15.7,22.5,15.1,19.9,15.1,19.9z"/>
	<g class="st6">
		
			<linearGradient id="SVGID_00000047752863641200918260000013492064755482352790_" gradientUnits="userSpaceOnUse" x1="1027.9622" y1="2047.1129" x2="1027.7991" y2="2047.6123" gradientTransform="matrix(1.0785 -5.094034e-02 1.797272e-02 1.0785 -1132.2404 -2136.0474)">
			<stop  offset="5.000000e-03" style="stop-color:#EDA937"/>
			<stop  offset="1" style="stop-color:#DF4136"/>
		</linearGradient>
		<path style="fill:url(#SVGID_00000047752863641200918260000013492064755482352790_);" d="M13.4,19.3l-0.6,0.5
			C13,19.7,13.2,19.5,13.4,19.3z"/>
	</g>
	<g>
		
			<linearGradient id="SVGID_00000072272511150838065870000004154465017863452033_" gradientUnits="userSpaceOnUse" x1="1026.0144" y1="2051.3621" x2="1025.9338" y2="2040.8374" gradientTransform="matrix(1.0785 -5.094034e-02 1.797272e-02 1.0785 -1132.2404 -2136.0474)">
			<stop  offset="5.000000e-03" style="stop-color:#9A247A"/>
			<stop  offset="1" style="stop-color:#422959"/>
		</linearGradient>
		<path style="fill:url(#SVGID_00000072272511150838065870000004154465017863452033_);" d="M11.2,27C11.2,27,11.2,27,11.2,27
			C11.2,27,11.2,27,11.2,27C11.2,27,11.2,27,11.2,27z"/>
	</g>
	
		<linearGradient id="SVGID_00000138552134056496563810000000818992642107572101_" gradientUnits="userSpaceOnUse" x1="255.3598" y1="250.5412" x2="264.2587" y2="241.9376" gradientTransform="matrix(0.5501 -0.866 0.8487 0.5245 -336.2707 112.2234)">
		<stop  offset="0" style="stop-color:#06AB67"/>
		<stop  offset="1" style="stop-color:#2FA4DD"/>
	</linearGradient>
	<path style="fill:url(#SVGID_00000138552134056496563810000000818992642107572101_);" d="M17.6,7.6c-4.3-0.7-8,2.3-8,2.3
		c0,0,0,0,0,0c-2.3,1.9-3.8,4.8-3.8,8c0,0.3,0,0.6,0,0.9c0,0,0,0,0,0c0,0,0,0,0,0c0,0,0,0.1,0,0.1c0,0.1,0,0.2,0,0.3
		c0,0,0,0.1,0,0.1c0,0.1,0,0.2,0,0.3c0,0,0,0.1,0,0.1c0,0.1,0,0.3,0.1,0.4c0,0,0,0,0,0.1c0,0.1,0,0.2,0.1,0.3c0,0,0,0.1,0,0.1
		c0,0.1,0.1,0.2,0.1,0.3c0,0,0,0.1,0,0.1c0,0.1,0.1,0.2,0.1,0.4c0,0,0,0,0,0l0,0c0,0,0,0,0,0l0,0c6.9-3,4.3-5.8,6.8-8
		C16.3,10.7,25.2,9.2,26,19c0.1-0.5,0.1-1,0.1-1.6C26.2,12.4,22.4,8.2,17.6,7.6z M6.3,21.5L6.3,21.5L6.3,21.5L6.3,21.5z"/>
	
		<linearGradient id="SVGID_00000178205271046624024190000001653545951804286350_" gradientUnits="userSpaceOnUse" x1="25.5339" y1="-31.2319" x2="35.081" y2="-31.2319" gradientTransform="matrix(0.7622 -0.7869 -0.7632 -0.7392 -33.0718 23.6861)">
		<stop  offset="5.000000e-03" style="stop-color:#F6B428"/>
		<stop  offset="1" style="stop-color:#E31E26"/>
	</linearGradient>
	<path style="fill:url(#SVGID_00000178205271046624024190000001653545951804286350_);" d="M20.3,21.9c-0.4,2.2-2.4,3.5-4.3,3.5
		c-1.3,0-2.3-0.1-3.1-0.6c2.8-2.3,2.2-4.9,2.2-4.9c-0.6,0.6-1.7,2.5-5.1,3.1c-0.1,0-0.2,0-0.3,0c0,0-0.1,0-0.1,0c-0.1,0-0.1,0-0.2,0
		c0,0-0.1,0-0.1,0c-0.1,0-0.2,0-0.2,0c0,0,0,0-0.1,0c-0.1,0-0.2,0-0.3,0c0,0,0,0,0,0c-0.1,0-0.2,0-0.3,0c0,0,0,0-0.1,0
		c-0.1,0-0.2,0-0.3,0c0,0,0,0-0.1,0c-0.2,0-0.4,0-0.6-0.1c-0.2,0-0.3-0.1-0.5-0.1c0.5,0.8,1,1.6,1.7,2.3c0.2,0.2,0.5,0.5,0.8,0.7
		c0,0,0,0,0,0c0.1,0.1,0.2,0.2,0.3,0.2c0,0,0,0,0.1,0c0.1,0.1,0.2,0.1,0.3,0.2l0,0c0,0,0.1,0,0.1,0.1c0.1,0.1,0.2,0.1,0.2,0.2
		c0,0,0.1,0,0.1,0.1c0.1,0.1,0.2,0.1,0.3,0.2c0,0,0.1,0,0.1,0.1c0.1,0.1,0.2,0.1,0.3,0.1c0.8,0.3,1.7,0.5,2.7,0.4
		C17.1,27.3,19.7,24.9,20.3,21.9L20.3,21.9z"/>
</g>
</svg>
